<svg width="674" height="170" viewBox="0 0 674 170" fill="none" xmlns="http://www.w3.org/2000/svg">
<path d="M314.812 144.897C314.812 147.798 313.316 150.214 310.325 152.148C307.383 154.048 302.871 154.998 296.789 154.998H286.768V169.55H279.963V134.696H296.789C302.672 134.696 307.134 135.646 310.175 137.546C313.266 139.447 314.812 141.897 314.812 144.897ZM296.789 151.248C300.578 151.248 303.37 150.698 305.165 149.598C306.959 148.498 307.857 146.931 307.857 144.897C307.857 140.597 304.167 138.447 296.789 138.447H286.768V151.248H296.789Z" fill="black"/>
<path d="M330.075 146.597C331.272 145.031 332.967 143.814 335.16 142.947C337.404 142.08 340.121 141.647 343.312 141.647V146.347H341.517C333.889 146.347 330.075 149.114 330.075 154.648V169.55H323.27V142.147H330.075V146.597Z" fill="black"/>
<path d="M369.041 170C365.202 170 361.712 169.417 358.571 168.25C355.48 167.083 353.037 165.433 351.242 163.299C349.497 161.132 348.625 158.632 348.625 155.798C348.625 152.998 349.522 150.531 351.317 148.398C353.162 146.231 355.654 144.581 358.795 143.447C361.936 142.28 365.451 141.697 369.34 141.697C373.228 141.697 376.743 142.28 379.884 143.447C383.025 144.581 385.493 146.214 387.288 148.348C389.132 150.481 390.055 152.965 390.055 155.798C390.055 158.632 389.107 161.132 387.213 163.299C385.368 165.433 382.851 167.083 379.66 168.25C376.469 169.417 372.929 170 369.041 170ZM369.041 166C371.483 166 373.777 165.616 375.921 164.849C378.064 164.083 379.784 162.933 381.081 161.399C382.427 159.866 383.1 157.999 383.1 155.798C383.1 153.598 382.452 151.731 381.155 150.198C379.859 148.664 378.164 147.531 376.07 146.797C373.976 146.031 371.708 145.647 369.265 145.647C366.772 145.647 364.479 146.031 362.385 146.797C360.341 147.531 358.696 148.664 357.449 150.198C356.203 151.731 355.58 153.598 355.58 155.798C355.58 158.032 356.178 159.916 357.374 161.449C358.621 162.983 360.266 164.133 362.31 164.899C364.354 165.633 366.598 166 369.041 166Z" fill="black"/>
<path d="M396.46 155.748C396.46 152.948 397.307 150.498 399.002 148.398C400.697 146.264 403.016 144.614 405.957 143.447C408.948 142.28 412.289 141.697 415.978 141.697C419.169 141.697 422.135 142.197 424.877 143.197C427.619 144.164 429.713 145.447 431.159 147.047V132.546H438.039V169.55H431.159V164.399C429.813 166.033 427.819 167.383 425.176 168.45C422.534 169.483 419.443 170 415.903 170C412.264 170 408.948 169.4 405.957 168.2C403.016 167 400.697 165.316 399.002 163.149C397.307 160.982 396.46 158.515 396.46 155.748ZM431.159 155.798C431.159 153.732 430.536 151.931 429.289 150.398C428.043 148.864 426.348 147.698 424.204 146.897C422.11 146.064 419.792 145.647 417.249 145.647C414.707 145.647 412.388 146.047 410.295 146.847C408.201 147.648 406.53 148.814 405.284 150.348C404.038 151.881 403.415 153.682 403.415 155.748C403.415 157.849 404.038 159.682 405.284 161.249C406.53 162.783 408.201 163.966 410.295 164.799C412.388 165.6 414.707 166 417.249 166C419.792 166 422.11 165.6 424.204 164.799C426.348 163.966 428.043 162.783 429.289 161.249C430.536 159.682 431.159 157.865 431.159 155.798Z" fill="black"/>
<path d="M485.884 142.147V169.55H479.079V165.499C477.782 166.9 475.963 168 473.62 168.8C471.326 169.567 468.784 169.95 465.992 169.95C462.801 169.95 459.934 169.517 457.392 168.65C454.849 167.75 452.83 166.416 451.334 164.649C449.888 162.883 449.165 160.732 449.165 158.199V142.147H455.896V157.599C455.896 160.299 456.918 162.382 458.962 163.849C461.006 165.283 463.798 166 467.338 166C470.977 166 473.844 165.249 475.938 163.749C478.032 162.249 479.079 160.066 479.079 157.199V142.147H485.884Z" fill="black"/>
<path d="M494.832 155.798C494.832 152.965 495.679 150.498 497.374 148.398C499.069 146.264 501.413 144.614 504.404 143.447C507.445 142.28 510.91 141.697 514.799 141.697C519.834 141.697 523.972 142.514 527.213 144.147C530.503 145.781 532.672 148.048 533.719 150.948H526.39C525.692 149.281 524.321 147.964 522.277 146.997C520.283 146.031 517.79 145.547 514.799 145.547C510.91 145.547 507.769 146.447 505.376 148.248C502.983 150.014 501.787 152.531 501.787 155.798C501.787 159.099 502.983 161.649 505.376 163.449C507.769 165.249 510.91 166.15 514.799 166.15C517.79 166.15 520.283 165.683 522.277 164.749C524.271 163.816 525.642 162.483 526.39 160.749H533.719C532.622 163.549 530.429 165.8 527.138 167.5C523.848 169.167 519.735 170 514.799 170C510.91 170 507.445 169.417 504.404 168.25C501.413 167.083 499.069 165.433 497.374 163.299C495.679 161.166 494.832 158.665 494.832 155.798Z" fill="black"/>
<path d="M551.1 145.897V162.049C551.1 163.383 551.524 164.333 552.372 164.899C553.219 165.433 554.69 165.7 556.784 165.7H561.794V169.55H555.662C551.873 169.55 549.031 168.967 547.137 167.8C545.242 166.633 544.295 164.716 544.295 162.049V145.897H538.985V142.147H544.295V135.246H551.1V142.147H561.794V145.897H551.1Z" fill="black"/>
<path d="M573.554 137.696C572.258 137.696 571.161 137.396 570.264 136.796C569.367 136.196 568.918 135.463 568.918 134.596C568.918 133.729 569.367 132.996 570.264 132.396C571.161 131.796 572.258 131.496 573.554 131.496C574.801 131.496 575.848 131.796 576.695 132.396C577.593 132.996 578.041 133.729 578.041 134.596C578.041 135.463 577.593 136.196 576.695 136.796C575.848 137.396 574.801 137.696 573.554 137.696ZM576.845 142.147V169.55H570.04V142.147H576.845Z" fill="black"/>
<path d="M606.317 170C602.478 170 598.988 169.417 595.847 168.25C592.756 167.083 590.313 165.433 588.518 163.299C586.773 161.132 585.901 158.632 585.901 155.798C585.901 152.998 586.798 150.531 588.593 148.398C590.438 146.231 592.93 144.581 596.071 143.447C599.212 142.28 602.727 141.697 606.616 141.697C610.504 141.697 614.019 142.28 617.16 143.447C620.301 144.581 622.769 146.214 624.564 148.348C626.408 150.481 627.331 152.965 627.331 155.798C627.331 158.632 626.383 161.132 624.489 163.299C622.644 165.433 620.126 167.083 616.936 168.25C613.745 169.417 610.205 170 606.317 170ZM606.317 166C608.759 166 611.053 165.616 613.197 164.849C615.34 164.083 617.06 162.933 618.357 161.399C619.703 159.866 620.376 157.999 620.376 155.798C620.376 153.598 619.728 151.731 618.431 150.198C617.135 148.664 615.44 147.531 613.346 146.797C611.252 146.031 608.984 145.647 606.541 145.647C604.048 145.647 601.755 146.031 599.661 146.797C597.617 147.531 595.971 148.664 594.725 150.198C593.479 151.731 592.856 153.598 592.856 155.798C592.856 158.032 593.454 159.916 594.65 161.449C595.897 162.983 597.542 164.133 599.586 164.899C601.63 165.633 603.874 166 606.317 166Z" fill="black"/>
<path d="M656.245 141.647C661.231 141.647 665.269 142.664 668.36 144.697C671.451 146.697 672.997 149.598 672.997 153.398V169.55H666.266V154.048C666.266 151.315 665.244 149.231 663.2 147.798C661.156 146.331 658.364 145.597 654.825 145.597C651.235 145.597 648.368 146.347 646.224 147.848C644.13 149.348 643.084 151.531 643.084 154.398V169.55H636.278V142.147H643.084V146.047C644.43 144.647 646.249 143.564 648.543 142.797C650.886 142.03 653.453 141.647 656.245 141.647Z" fill="black"/>
<path d="M378.88 14.6691V118.686H357.603V56.3057L338.069 118.686H320.898L301.239 56.1575V118.686H279.963V14.6691H305.096L329.608 86.6811L353.87 14.6691H378.88Z" fill="black"/>
<path d="M472.318 118.686H451.042L415.456 54.5276V118.686H394.18V14.6691H415.456L451.042 79.1243V14.6691H472.318V118.686Z" fill="black"/>
<path d="M498.441 27.412C494.708 27.412 491.639 26.1278 489.234 23.5595C486.911 20.8924 485.75 17.6326 485.75 13.7801C485.75 9.8288 486.911 6.569 489.234 4.00067C491.639 1.33356 494.708 0 498.441 0C502.091 0 505.077 1.33356 507.4 4.00067C509.805 6.569 511.008 9.8288 511.008 13.7801C511.008 17.6326 509.805 20.8924 507.4 23.5595C505.077 26.1278 502.091 27.412 498.441 27.412ZM509.017 36.006V118.686H487.741V36.006H509.017Z" fill="black"/>
<path d="M566.74 35.117C574.869 35.117 581.339 38.278 586.15 44.6C591.044 50.8233 593.491 59.4173 593.491 70.3821V118.686H572.339V73.7901C572.339 68.2583 571.136 63.9613 568.731 60.899C566.325 57.8368 563.09 56.3057 559.026 56.3057C554.961 56.3057 551.726 57.8368 549.321 60.899C546.915 63.9613 545.713 68.2583 545.713 73.7901V118.686H524.436V36.006H545.713V46.9708C547.869 43.3158 550.772 40.4512 554.422 38.3768C558.072 36.2036 562.178 35.117 566.74 35.117Z" fill="black"/>
<path d="M673.723 76.0126C673.723 78.3834 673.599 80.853 673.35 83.4213H625.198C625.53 88.5579 626.898 92.5092 629.304 95.2751C631.792 97.9422 634.82 99.2758 638.387 99.2758C643.696 99.2758 647.387 96.6087 649.461 91.2744H672.106C670.944 96.7074 668.829 101.597 665.76 105.944C662.774 110.29 659 113.698 654.438 116.167C649.875 118.637 644.774 119.872 639.133 119.872C632.332 119.872 626.276 118.143 620.968 114.686C615.659 111.228 611.511 106.289 608.525 99.8685C605.539 93.4476 604.046 85.9402 604.046 77.3462C604.046 68.7522 605.498 61.2448 608.401 54.8239C611.387 48.4031 615.534 43.464 620.843 40.0067C626.152 36.5493 632.249 34.8206 639.133 34.8206C645.852 34.8206 651.825 36.4999 657.05 39.8585C662.276 43.2171 666.341 48.008 669.244 54.2312C672.23 60.4545 673.723 67.715 673.723 76.0126ZM651.949 69.3449C651.949 64.9985 650.705 61.5411 648.216 58.9728C645.728 56.4044 642.617 55.1203 638.885 55.1203C635.318 55.1203 632.29 56.3551 629.802 58.8246C627.396 61.2941 625.903 64.8009 625.322 69.3449H651.949Z" fill="black"/>
<path fill-rule="evenodd" clip-rule="evenodd" d="M134.78 0.413773C136.745 0.62066 139.952 1.34476 141.814 1.86198C144.4 2.48264 146.572 2.99986 148.848 3.72396C169.95 10.5512 188.88 31.2399 193.846 52.7561C197.57 68.5829 198.397 127.649 193.535 141.304C186.501 160.854 175.019 162.82 171.295 165.923C159.709 168.199 147.193 170.785 134.469 161.682C132.607 160.441 132.09 159.82 130.538 158.372C126.09 154.337 125.987 157.234 125.987 157.234C123.815 157.751 123.815 158.579 121.849 160.337C120.608 161.268 119.366 162.199 117.815 163.027C114.401 164.992 111.401 165.613 108.298 167.061C97.2296 168.406 93.4022 168.509 83.2648 165.406C85.9543 170.682 94.1263 169.957 100.436 169.854C107.47 169.647 114.194 169.44 121.228 169.544C135.297 169.647 150.503 170.061 164.364 169.647C185.881 167.578 214.948 174.716 231.809 149.269C243.602 131.373 240.292 94.8576 240.395 69.7208C240.395 44.8944 241.119 19.2405 216.086 6.41349C204.811 0.62066 192.915 0.724103 178.536 0.206887C171.398 -0.103443 163.951 0 156.71 0.103443C150.503 0.103443 135.917 0.31033 134.78 0.413773ZM138.607 120.615H141.193H171.192H175.433V144.717H138.607V120.615ZM113.574 120.822H83.3682C83.4716 125.787 82.851 131.063 84.9199 134.166C85.9543 137.787 90.1955 141.821 94.3332 142.855C99.7122 144.2 105.091 142.235 108.608 139.235C115.332 133.028 113.367 117.201 113.263 107.995C113.263 96.0989 113.056 83.7891 113.263 71.8931C113.367 65.8934 114.918 61.3419 118.125 58.7558C121.332 56.1697 128.159 54.825 132.504 56.3766C132.4 53.2733 133.435 51.4113 134.676 49.4459C145.124 49.239 155.675 48.7218 166.123 48.308C161.054 41.8946 159.813 38.3775 151.848 32.895C138.4 23.4816 119.573 22.7575 105.298 31.2399C97.9537 35.4811 94.5401 42.3083 85.8508 34.2397C85.7474 37.2396 84.1957 40.9636 83.8854 44.8944C82.4372 58.342 83.4716 71.169 88.4369 82.2375C90.5058 87.0993 93.1953 91.5474 96.8158 95.2713C102.712 101.581 106.333 102.409 113.263 105.823C113.47 109.34 113.47 116.063 113.574 120.822ZM171.192 120.615C171.295 111.512 172.019 62.066 169.64 58.5489C170.261 60.3075 170.157 60.3075 169.123 60.3075L144.296 60.4109C139.021 60.4109 139.745 61.2385 137.779 59.8937C143.158 67.652 140.883 105.926 141.193 120.615H171.192ZM141.503 109.029L170.778 109.236L170.881 120.511H141.607L141.503 109.029Z" fill="#FF7F02"/>
<path fill-rule="evenodd" clip-rule="evenodd" d="M85.8508 34.2397C94.5401 42.3083 97.9537 35.4811 105.298 31.2399C119.573 22.7575 138.4 23.4816 151.848 32.895C159.813 38.3775 161.054 41.8946 166.123 48.308L169.64 58.5489C172.019 62.066 171.295 112.546 171.192 120.925C171.088 131.683 170.261 140.062 160.951 142.545C144.607 147.096 141.503 133.545 141.193 121.442C140.779 107.478 143.262 67.8588 137.779 59.8937C135.4 58.7558 134.469 57.9283 132.504 56.3766C128.159 54.825 121.332 56.1697 118.125 58.7558C114.918 61.3419 113.367 65.8934 113.263 71.8931C113.056 83.7891 113.263 96.0989 113.263 107.995C113.367 118.236 115.332 133.338 108.608 139.235C105.091 142.235 99.7122 144.2 94.3332 142.855C90.1955 141.821 85.9543 137.787 84.9199 134.166C82.851 131.063 83.4716 125.787 83.3682 120.822C82.6441 112.753 83.2648 101.168 83.1613 92.7887C83.1613 84.4098 83.9889 72.4103 82.3338 64.859C77.7823 52.1354 60.6107 52.6527 56.3695 64.0314C54.3006 69.6174 55.2316 97.5471 55.3351 105.719C55.6454 117.512 57.9211 134.476 48.7147 140.683C44.9907 143.166 37.2325 144.614 32.1637 141.304C22.9573 135.097 25.233 116.063 25.1296 105.202C25.0262 86.0649 22.5435 61.4453 31.1293 47.0667C36.5084 38.0672 44.1632 31.6537 54.3006 27.5159C68.5758 21.7231 76.8513 27.2056 85.8508 34.2397ZM83.2648 165.406C93.4022 168.509 97.2296 168.406 108.298 167.061C111.401 165.613 114.401 164.992 117.815 163.027C119.366 162.199 120.608 161.268 121.849 160.337C123.815 158.579 123.815 157.751 125.987 157.234C125.987 157.234 126.09 154.337 130.538 158.372C132.09 159.82 132.607 160.441 134.469 161.682C147.193 170.785 159.709 168.199 171.295 165.923C175.019 162.82 186.501 160.854 193.535 141.304C198.397 127.649 197.57 68.5829 193.846 52.7561C190.846 19.5508 145.434 -10.965 112.022 4.24118C101.988 8.79268 104.16 10.7581 92.885 5.17217C80.6787 -0.93099 61.5417 -0.93099 47.7837 3.51707C34.4395 7.86169 23.8883 16.4475 16.2335 24.9298C7.75111 34.3432 2.99272 46.4461 1.23418 62.1694C0.0963057 72.8241 -1.14501 127.753 1.95829 138.924C7.75111 159.82 29.7845 172.44 50.4732 166.647C58.6452 164.371 61.2313 160.958 67.5414 157.234C71.1619 155.062 72.9204 158.889 75.1962 160.751C77.6788 162.613 80.4718 163.958 83.2648 165.406Z" fill="black"/>
</svg>
