<svg width="801" height="500" viewBox="0 0 801 500" fill="none" xmlns="http://www.w3.org/2000/svg">
<rect width="801" height="500" fill="black"/>
<path fill-rule="evenodd" clip-rule="evenodd" d="M414.267 170.391C416.123 170.586 419.151 171.27 420.909 171.758C423.351 172.344 425.402 172.833 427.551 173.516C447.477 179.963 465.352 199.498 470.04 219.815C473.557 234.76 474.338 290.534 469.747 303.427C463.105 321.888 452.263 323.744 448.747 326.674C437.807 328.823 425.988 331.265 413.974 322.669C412.215 321.497 411.727 320.911 410.262 319.544C406.062 315.734 405.964 318.469 405.964 318.469C403.913 318.958 403.913 319.739 402.057 321.399C400.885 322.279 399.713 323.158 398.248 323.939C395.024 325.795 392.192 326.381 389.261 327.748C378.81 329.018 375.196 329.116 365.624 326.186C368.163 331.167 375.88 330.483 381.838 330.386C388.48 330.19 394.829 329.995 401.471 330.093C414.755 330.19 429.114 330.581 442.202 330.19C462.519 328.237 489.966 334.977 505.888 310.948C517.023 294.05 513.897 259.57 513.995 235.834C513.995 212.392 514.679 188.168 491.041 176.056C480.394 170.586 469.161 170.684 455.584 170.195C448.844 169.902 441.812 170 434.974 170.098C429.114 170.098 415.341 170.293 414.267 170.391ZM417.881 283.891H420.323H448.649H452.654V306.65H417.881V283.891ZM394.243 284.087H365.721C365.819 288.775 365.233 293.757 367.186 296.687C368.163 300.106 372.168 303.915 376.075 304.892C381.154 306.162 386.233 304.306 389.554 301.473C395.903 295.613 394.048 280.668 393.95 271.975C393.95 260.742 393.755 249.118 393.95 237.886C394.048 232.22 395.513 227.923 398.541 225.481C401.569 223.039 408.015 221.769 412.118 223.234C412.02 220.304 412.997 218.546 414.169 216.69C424.034 216.494 433.997 216.006 443.863 215.615C439.077 209.559 437.905 206.238 430.383 201.061C417.685 192.173 399.908 191.489 386.429 199.498C379.494 203.503 376.27 209.95 368.065 202.331C367.968 205.164 366.503 208.68 366.21 212.392C364.842 225.09 365.819 237.202 370.507 247.653C372.461 252.244 375.001 256.444 378.419 259.961C383.987 265.919 387.406 266.7 393.95 269.924C394.145 273.245 394.145 279.594 394.243 284.087ZM448.649 283.891C448.747 275.296 449.43 228.606 447.184 225.285C447.77 226.946 447.672 226.946 446.695 226.946L423.253 227.043C418.271 227.043 418.955 227.825 417.099 226.555C422.179 233.881 420.03 270.021 420.323 283.891H448.649ZM420.616 272.952L448.258 273.147L448.356 283.794H420.713L420.616 272.952Z" fill="#FF7F02"/>
<path fill-rule="evenodd" clip-rule="evenodd" d="M368.065 202.331C376.27 209.95 379.493 203.503 386.429 199.498C399.908 191.489 417.685 192.173 430.383 201.061C437.904 206.238 439.076 209.559 443.863 215.615L447.184 225.285C449.43 228.606 448.746 276.273 448.649 284.184C448.551 294.343 447.77 302.255 438.979 304.599C423.546 308.897 420.615 296.101 420.322 284.673C419.932 271.486 422.276 234.076 417.099 226.555C414.853 225.481 413.973 224.699 412.118 223.234C408.015 221.769 401.568 223.039 398.54 225.481C395.512 227.922 394.047 232.22 393.95 237.886C393.754 249.118 393.95 260.742 393.95 271.975C394.047 281.645 395.903 295.906 389.554 301.473C386.233 304.306 381.154 306.162 376.075 304.892C372.168 303.915 368.163 300.106 367.186 296.687C365.233 293.757 365.819 288.775 365.721 284.087C365.037 276.468 365.623 265.528 365.526 257.616C365.526 249.704 366.307 238.374 364.744 231.243C360.446 219.229 344.232 219.718 340.227 230.462C338.274 235.737 339.153 262.109 339.25 269.826C339.544 280.961 341.692 296.98 332.999 302.841C329.483 305.185 322.157 306.552 317.371 303.427C308.678 297.566 310.826 279.594 310.729 269.338C310.631 251.267 308.287 228.02 316.394 214.443C321.473 205.945 328.701 199.889 338.274 195.982C351.753 190.512 359.567 195.689 368.065 202.331ZM365.623 326.186C375.196 329.116 378.81 329.018 389.261 327.748C392.191 326.381 395.024 325.795 398.247 323.939C399.713 323.158 400.885 322.278 402.057 321.399C403.913 319.739 403.913 318.957 405.964 318.469C405.964 318.469 406.062 315.734 410.262 319.544C411.727 320.911 412.215 321.497 413.973 322.669C425.988 331.265 437.807 328.823 448.746 326.674C452.263 323.744 463.105 321.888 469.747 303.427C474.338 290.533 473.556 234.76 470.04 219.815C467.207 188.461 424.327 159.646 392.778 174.005C383.303 178.303 385.354 180.158 374.707 174.884C363.181 169.121 345.111 169.121 332.12 173.321C319.52 177.423 309.557 185.531 302.329 193.54C294.319 202.429 289.826 213.857 288.165 228.704C287.091 238.765 285.919 290.631 288.849 301.18C294.319 320.911 315.124 332.828 334.66 327.358C342.376 325.209 344.818 321.985 350.776 318.469C354.195 316.418 355.856 320.032 358.004 321.79C360.349 323.548 362.986 324.818 365.623 326.186Z" fill="white"/>
</svg>
