<svg width="200" height="200" viewBox="0 0 200 200" fill="none" xmlns="http://www.w3.org/2000/svg">
  <path fill-rule="evenodd" clip-rule="evenodd" d="M112.031 30.3409C113.65 30.5113 116.292 31.1078 117.826 31.5339C119.956 32.0452 121.746 32.4713 123.621 33.0678C141.005 38.6921 156.6 55.7354 160.69 73.4604C163.758 86.4985 164.439 135.157 160.434 146.406C154.64 162.512 145.181 164.131 142.113 166.687C132.568 168.562 122.257 170.692 111.776 163.193C110.242 162.171 109.816 161.659 108.537 160.466C104.873 157.143 104.788 159.529 104.788 159.529C102.998 159.955 102.998 160.637 101.379 162.086C100.357 162.852 99.3341 163.619 98.0558 164.301C95.2437 165.92 92.7724 166.432 90.2159 167.625C81.0977 168.732 77.9447 168.818 69.5935 166.261C71.8091 170.607 78.5412 170.011 83.7394 169.925C89.5342 169.755 95.0732 169.585 100.868 169.67C112.457 169.755 124.984 170.096 136.403 169.755C154.128 168.051 178.074 173.931 191.964 152.967C201.679 138.225 198.952 108.143 199.037 87.4359C199.037 66.9839 199.634 45.8503 179.011 35.2834C169.723 30.5113 159.923 30.5965 148.078 30.1704C142.198 29.9148 136.062 30 130.097 30.0852C124.984 30.0852 112.969 30.2556 112.031 30.3409ZM115.184 129.362H117.315H142.027H145.521V149.218H115.184V129.362ZM94.5619 129.533H69.6787C69.7639 133.623 69.2526 137.969 70.957 140.526C71.8091 143.508 75.303 146.832 78.7117 147.684C83.1429 148.792 87.5742 147.173 90.4715 144.701C96.0106 139.588 94.3915 126.55 94.3063 118.966C94.3063 109.166 94.1358 99.0253 94.3063 89.2254C94.3915 84.2829 95.6697 80.5334 98.3115 78.403C100.953 76.2725 106.577 75.1647 110.157 76.443C110.071 73.8865 110.923 72.3526 111.946 70.7335C120.553 70.563 129.245 70.137 137.852 69.7961C133.676 64.5127 132.654 61.6153 126.092 57.0988C115.014 49.3441 99.5045 48.7476 87.7446 55.7354C81.6942 59.2292 78.8821 64.8535 71.7239 58.2066C71.6387 60.6779 70.3605 63.7457 70.1048 66.9839C68.9118 78.0621 69.7639 88.6289 73.8543 97.7471C75.5587 101.752 77.7743 105.417 80.7569 108.484C85.6142 113.683 88.5968 114.364 94.3063 117.176C94.4767 120.074 94.4767 125.613 94.5619 129.533ZM142.027 129.362C142.113 121.863 142.709 81.1299 140.749 78.2325C141.261 79.6812 141.175 79.6812 140.323 79.6812L119.871 79.7664C115.525 79.7664 116.122 80.4481 114.503 79.3403C118.934 85.7316 117.059 117.262 117.315 129.362H142.027ZM117.57 119.818L141.687 119.989L141.772 129.277H117.656L117.57 119.818Z" fill="#FF7F02"/>
  <path
    fill-rule="evenodd"
    clip-rule="evenodd"
    d="M71.7238 58.2066C78.882 64.8535 81.6941 59.2292 87.7445 55.7353C99.5044 48.7475 115.014 49.3441 126.092 57.0988C132.654 61.6152 133.676 64.5126 137.852 69.796L140.749 78.2324C142.709 81.1298 142.113 122.715 142.027 129.618C141.942 138.48 141.26 145.383 133.591 147.428C120.127 151.178 117.57 140.014 117.315 130.044C116.974 118.54 119.019 85.9019 114.502 79.3403C112.542 78.4029 111.776 77.7211 110.156 76.4429C106.577 75.1646 100.953 76.2725 98.3113 78.4029C95.6696 80.5333 94.3914 84.2828 94.3061 89.2254C94.1357 99.0253 94.3061 109.166 94.3061 118.966C94.3914 127.402 96.0105 139.844 90.4714 144.701C87.574 147.173 83.1428 148.792 78.7115 147.684C75.3029 146.832 71.809 143.508 70.9568 140.526C69.2525 137.969 69.7638 133.623 69.6786 129.533C69.0821 122.886 69.5934 113.342 69.5082 106.439C69.5082 99.5366 70.1899 89.6514 68.8264 83.4306C65.0769 72.949 50.931 73.3751 47.4371 82.7489C45.7328 87.3506 46.4997 110.359 46.5849 117.091C46.8406 126.806 48.7153 140.781 41.1311 145.894C38.0633 147.94 31.672 149.133 27.4964 146.406C19.9122 141.293 21.7869 125.613 21.7017 116.665C21.6165 100.9 19.5713 80.6185 26.6443 68.7734C31.0755 61.3596 37.3816 56.0762 45.7328 52.6675C57.4926 47.8954 64.31 52.4118 71.7238 58.2066ZM69.5934 166.261C77.9446 168.818 81.0976 168.732 90.2158 167.625C92.7723 166.431 95.2435 165.92 98.0557 164.301C99.3339 163.619 100.357 162.852 101.379 162.085C102.998 160.637 102.998 159.955 104.788 159.529C104.788 159.529 104.873 157.143 108.537 160.466C109.816 161.659 110.242 162.171 111.776 163.193C122.257 170.692 132.568 168.562 142.113 166.687C145.18 164.131 154.639 162.512 160.434 146.406C164.439 135.157 163.758 86.4984 160.69 73.4603C158.218 46.1058 120.808 20.967 93.2836 33.4938C85.0176 37.2433 86.8071 38.8624 77.5185 34.2607C67.463 29.233 51.6979 29.233 40.3641 32.8973C29.3712 36.4764 20.6791 43.5493 14.3731 50.5371C7.38535 58.2918 3.4654 68.2621 2.01672 81.215C1.07934 89.9923 0.0567391 135.242 2.61323 144.446C7.38535 161.659 25.5365 172.056 42.5798 167.284C49.3119 165.409 51.4423 162.597 56.6405 159.529C59.623 157.739 61.0717 160.892 62.9465 162.426C64.9917 163.96 67.2925 165.068 69.5934 166.261Z"
    fill="none" id="m-section"
  />
  <style>
      #m-section { fill: #000; }
      @media (prefers-color-scheme: dark) {
        #m-section { fill: #FFF; }
      }
  </style>
</svg>
